<svg width="58" height="58" viewBox="0 0 58 58" fill="none" xmlns="http://www.w3.org/2000/svg">
<g clip-path="url(#clip0_153_2)">
<path fill-rule="evenodd" clip-rule="evenodd" d="M29 58C12.9829 58 0 45.0171 0 29C0 12.9829 12.9829 0 29 0C45.0171 0 58 12.9829 58 29C58 45.0171 45.0171 58 29 58ZM44.4062 34.9214V20.0589L29 10.875L13.5938 20.0589V38.1024L29 47.125L41.7147 39.6793L28.0521 31.5774L30.5261 30.2089V15.8902L40.9299 22.0926V28.6774L37.6909 26.7652L36.8209 30.3703L44.4062 34.9214ZM17.0701 22.0944L27.0715 16.1312V28.0358L17.0701 33.8357V22.0944ZM24.4959 33.5929L34.7547 39.6702L29 43.0378L18.8083 37.0692L24.4959 33.5929Z" fill="#FFAC12"/>
</g>
<defs>
<clipPath id="clip0_153_2">
<rect width="58" height="58" fill="white"/>
</clipPath>
</defs>
</svg>
